<?xml version="1.0" standalone="no"?>
<!DOCTYPE svg PUBLIC "-//W3C//DTD SVG 20010904//EN"
 "http://www.w3.org/TR/2001/REC-SVG-20010904/DTD/svg10.dtd">
<svg version="1.0" xmlns="http://www.w3.org/2000/svg"
 width="822.000000pt" height="850.000000pt" viewBox="0 0 822.000000 850.000000"
 preserveAspectRatio="xMidYMid meet">

<g transform="translate(0.000000,850.000000) scale(0.100000,-0.100000)"
fill="#000000" stroke="none">
<path d="M6920 8492 c0 -4 -19 -13 -41 -20 -94 -29 -182 -118 -235 -237 -52
-118 -54 -145 -54 -754 l0 -564 -292 6 c-161 4 -1273 7 -2470 7 l-2178 0 0
523 c0 581 -2 602 -65 733 -42 88 -118 169 -190 204 -71 34 -179 34 -250 0
-109 -53 -208 -196 -240 -347 -21 -98 -21 -1336 -1 -1433 39 -181 145 -319
282 -365 l49 -16 950 -1946 c523 -1070 951 -1949 953 -1953 1 -4 -46 -10 -105
-14 -217 -14 -448 -56 -828 -150 -220 -54 -265 -72 -265 -106 0 -20 25 -50 41
-50 5 0 91 20 191 46 417 104 667 150 885 161 l131 6 52 -102 51 -102 -93 7
c-225 16 -484 -39 -933 -198 -158 -55 -197 -83 -172 -122 8 -11 23 -22 35 -24
11 -2 101 26 199 62 365 133 574 179 803 180 218 0 204 7 271 -132 l56 -118
-153 4 c-247 7 -431 -26 -696 -122 -165 -60 -470 -195 -485 -215 -21 -27 -15
-60 11 -73 22 -9 49 0 218 74 446 197 643 245 953 235 94 -3 179 -9 190 -12
14 -4 47 -63 111 -194 l91 -188 -49 -49 c-27 -27 -63 -78 -81 -114 -29 -58
-32 -74 -32 -155 0 -82 3 -97 32 -155 163 -331 663 -331 826 0 29 58 32 73 32
155 0 82 -3 97 -32 155 -18 36 -51 84 -73 107 l-41 42 92 176 c51 97 99 180
108 184 20 11 201 47 311 62 136 18 358 14 478 -10 213 -42 359 -96 735 -273
93 -45 110 -50 132 -40 30 14 34 51 8 74 -47 41 -396 198 -582 262 -314 108
-574 127 -907 66 -60 -11 -112 -20 -116 -20 -4 0 13 37 37 82 50 94 39 88 206
112 321 47 563 25 847 -80 53 -19 206 -89 340 -155 133 -65 249 -119 257 -119
8 0 22 11 31 25 28 42 3 62 -217 172 -304 152 -479 218 -694 260 -148 29 -464
22 -638 -13 l-29 -6 47 90 c32 63 53 92 68 95 141 34 515 32 672 -3 199 -44
438 -150 737 -325 148 -87 180 -97 201 -64 25 39 2 62 -162 156 -318 185 -557
288 -776 334 -123 26 -374 36 -525 21 -57 -6 -105 -10 -106 -9 -1 1 481 920
1071 2042 l1072 2040 44 5 c122 16 217 110 293 290 33 79 36 152 36 799 0 698
-2 716 -54 836 -53 119 -141 208 -235 237 -22 7 -41 16 -41 20 0 5 -22 8 -50
8 -27 0 -50 -3 -50 -8z m-622 -1669 l292 -6 0 -32 c0 -170 119 -391 243 -448
20 -10 36 -21 34 -25 -2 -4 -488 -930 -1081 -2057 l-1076 -2051 -146 -24
c-151 -25 -204 -46 -204 -79 0 -46 45 -52 179 -27 46 9 90 16 98 16 10 0 0
-27 -35 -92 l-50 -92 -124 -27 c-174 -40 -196 -47 -209 -70 -13 -26 12 -69 40
-69 17 0 166 32 214 46 15 5 10 -11 -24 -78 -23 -45 -43 -84 -44 -86 -2 -2
-65 -19 -141 -39 -150 -39 -177 -53 -172 -91 5 -44 28 -48 130 -23 51 13 99
25 106 28 7 3 -20 -58 -60 -136 -55 -106 -77 -139 -88 -134 -103 42 -212 53
-305 30 -33 -8 -67 -17 -75 -21 -12 -5 -32 27 -88 145 -39 84 -70 154 -67 157
2 2 65 -8 139 -23 74 -14 144 -24 156 -20 11 3 23 18 26 32 12 44 -17 58 -189
92 -87 17 -167 31 -178 31 -16 0 -32 25 -75 116 -30 64 -53 118 -51 120 4 4
231 -54 335 -86 68 -21 74 -21 97 -6 29 19 32 46 7 69 -19 17 -279 94 -415
122 l-89 18 -49 100 c-28 54 -48 101 -46 103 11 11 375 -70 466 -104 54 -20
104 16 81 58 -14 27 -29 33 -155 68 -171 47 -264 66 -394 81 l-55 6 -957 1960
-957 1960 51 25 c151 71 256 274 257 493 l0 77 2178 0 c1197 0 2309 -3 2470
-7z"/>
<path d="M4916 5944 c-253 -61 -461 -331 -511 -663 -88 -583 299 -1101 744
-996 257 61 466 329 516 664 89 585 -301 1103 -749 995z"/>
<path d="M2891 5924 c-84 -23 -150 -63 -227 -139 -178 -176 -267 -467 -236
-768 24 -241 99 -416 236 -553 203 -203 459 -203 662 0 137 137 212 312 236
553 31 301 -58 592 -236 768 -134 133 -282 180 -435 139z"/>
</g>
</svg>
